<svg width="36" height="36" viewBox="0 0 36 36" fill="none" xmlns="http://www.w3.org/2000/svg">
<path d="M0 17.28C0 9.1341 0 5.06119 2.5306 2.5306C5.06119 0 9.1341 0 17.28 0H18.72C26.8659 0 30.9388 0 33.4694 2.5306C36 5.06119 36 9.1341 36 17.28V18.72C36 26.8659 36 30.9388 33.4694 33.4694C30.9388 36 26.8659 36 18.72 36H17.28C9.1341 36 5.06119 36 2.5306 33.4694C0 30.9388 0 26.8659 0 18.72V17.28Z" fill="url(#paint0_linear_153_1899)"/>
<path d="M13.2485 25.1862L13.578 25.3491C14.9514 26.1636 16.4895 26.5436 18.0277 26.5436C22.8617 26.5436 26.8169 22.6343 26.8169 17.8562C26.8169 15.5758 25.883 13.3497 24.235 11.7208C22.587 10.0918 20.3897 9.16884 18.0277 9.16884C13.1936 9.16884 9.23836 13.0782 9.29333 17.9106C9.29333 19.5394 9.78772 21.1141 10.6117 22.4714L10.8314 22.7972L9.95255 26.0007L13.2485 25.1862Z" fill="#31D652"/>
<path d="M25.1688 10.852C23.3011 8.95166 20.7193 7.92 18.0825 7.92C12.4795 7.92 7.97497 12.4266 8.02986 17.9105C8.02986 19.648 8.52425 21.3312 9.34829 22.8515L7.92 28.0096L13.2485 26.6522C14.7316 27.4667 16.3796 27.8468 18.0276 27.8468C23.5758 27.8468 28.0803 23.3401 28.0803 17.8563C28.0803 15.1957 27.0365 12.6981 25.1688 10.852ZM18.0825 26.1636C16.5994 26.1636 15.1162 25.7836 13.8527 25.0235L13.5231 24.8606L10.3371 25.675L11.161 22.5801L10.9413 22.2543C8.52425 18.3993 9.67786 13.2953 13.633 10.9062C17.5881 8.51725 22.6969 9.6575 25.114 13.5668C27.531 17.4762 26.3773 22.5257 22.4223 24.9148C21.1587 25.7292 19.6207 26.1636 18.0825 26.1636ZM22.9166 20.1368L22.3124 19.8653C22.3124 19.8653 21.4335 19.4852 20.8841 19.2137C20.8292 19.2137 20.7743 19.1594 20.7193 19.1594C20.5545 19.1594 20.4446 19.2137 20.3348 19.2681C20.3348 19.2681 20.2799 19.3223 19.5108 20.1911C19.4559 20.2996 19.346 20.354 19.2361 20.354H19.1812C19.1263 20.354 19.0164 20.2996 18.9615 20.2454L18.6868 20.1368C18.0825 19.8653 17.5332 19.5395 17.0937 19.1051C16.9839 18.9966 16.8191 18.888 16.7092 18.7794C16.3247 18.3993 15.9401 17.9649 15.6655 17.4762L15.6106 17.3676C15.5557 17.3133 15.5557 17.2591 15.5007 17.1505C15.5007 17.0419 15.5007 16.9333 15.5557 16.879C15.5557 16.879 15.7754 16.6075 15.9401 16.4446C16.0501 16.336 16.105 16.1731 16.2148 16.0646C16.3247 15.9016 16.3796 15.6845 16.3247 15.5216C16.2698 15.2501 15.6106 13.7841 15.4458 13.4583C15.3359 13.2954 15.2261 13.2412 15.0613 13.1868H14.457C14.3471 13.1868 14.2373 13.2411 14.1274 13.2411L14.0724 13.2954C13.9626 13.3497 13.8527 13.4583 13.7429 13.5126C13.633 13.6212 13.578 13.7297 13.4682 13.8384C13.0836 14.3271 12.8639 14.9243 12.8639 15.5216C12.8639 15.9559 12.9738 16.3903 13.1386 16.7704L13.1936 16.9333C13.688 17.9649 14.3471 18.888 15.2261 19.7024L15.4458 19.9196C15.6106 20.0825 15.7754 20.1911 15.8852 20.3539C17.0389 21.3313 18.3572 22.0371 19.8404 22.4172C20.0052 22.4715 20.2249 22.4715 20.3897 22.5258H20.939C21.2137 22.5258 21.5433 22.4172 21.7631 22.3086C21.9278 22.2001 22.0377 22.2001 22.1475 22.0915L22.2575 21.9828C22.3673 21.8742 22.4772 21.82 22.587 21.7114C22.6969 21.6028 22.8067 21.4942 22.8617 21.3856C22.9716 21.1684 23.0265 20.8969 23.0814 20.6255V20.2454C23.0814 20.2454 23.0265 20.1911 22.9166 20.1368Z" fill="white"/>
<defs>
<linearGradient id="paint0_linear_153_1899" x1="18" y1="0" x2="18" y2="36" gradientUnits="userSpaceOnUse">
<stop stop-color="#42E760"/>
<stop offset="0.765625" stop-color="#29CB4A"/>
</linearGradient>
</defs>
</svg>
